<svg width="96" height="24" viewBox="0 0 96 24" fill="none" xmlns="http://www.w3.org/2000/svg">
<path d="M14 13.5H16.5L17.5 9.5H14V7.5C14 6.47062 14 5.5 16 5.5H17.5V2.1401C17.1743 2.09685 15.943 2 14.6429 2C11.9284 2 10 3.65686 10 6.69971V9.5H7V13.5H10V22H14V13.5Z" fill="white"/>
<path d="M32 2H25L33.2609 13.0145L25.4499 21.9999H28.1L34.4883 14.651L40 22H47L38.3917 10.5223L45.8001 2H43.1501L37.1643 8.88578L32 2ZM41 20L29 4H31L43 20H41Z" fill="white"/>
<path d="M60.001 9C58.3436 9 57.001 10.3431 57.001 12C57.001 13.6573 58.3441 15 60.001 15C61.6583 15 63.001 13.6569 63.001 12C63.001 10.3427 61.6579 9 60.001 9ZM60.001 7C62.7614 7 65.001 9.2371 65.001 12C65.001 14.7605 62.7639 17 60.001 17C57.2405 17 55.001 14.7629 55.001 12C55.001 9.23953 57.2381 7 60.001 7ZM66.501 6.74915C66.501 7.43926 65.9402 7.99917 65.251 7.99917C64.5609 7.99917 64.001 7.4384 64.001 6.74915C64.001 6.0599 64.5617 5.5 65.251 5.5C65.9393 5.49913 66.501 6.0599 66.501 6.74915ZM60.001 4C57.5265 4 57.1232 4.00655 55.9723 4.0578C55.1881 4.09461 54.6625 4.20007 54.1742 4.38967C53.7402 4.55799 53.4271 4.75898 53.0935 5.09255C52.7587 5.4274 52.558 5.73963 52.3904 6.17383C52.2004 6.66332 52.0949 7.18811 52.0588 7.97115C52.007 9.0752 52.001 9.46105 52.001 12C52.001 14.4745 52.0075 14.8778 52.0588 16.0286C52.0956 16.8124 52.2012 17.3388 52.3903 17.826C52.5591 18.2606 52.7605 18.5744 53.0925 18.9064C53.4286 19.2421 53.7418 19.4434 54.1719 19.6094C54.6662 19.8005 55.1915 19.9061 55.9721 19.9422C57.0762 19.9939 57.462 20 60.001 20C62.4755 20 62.8788 19.9934 64.0296 19.9422C64.8117 19.9055 65.3385 19.7996 65.827 19.6106C66.2604 19.4423 66.5752 19.2402 66.9074 18.9085C67.2436 18.5718 67.4445 18.2594 67.6107 17.8283C67.8013 17.3358 67.9071 16.8098 67.9432 16.0289C67.9949 14.9248 68.001 14.5389 68.001 12C68.001 9.52552 67.9944 9.12221 67.9432 7.97137C67.9064 7.18906 67.8005 6.66149 67.6113 6.17318C67.4434 5.74038 67.2417 5.42635 66.9084 5.09255C66.573 4.75715 66.2616 4.55693 65.8271 4.38942C65.338 4.19954 64.8124 4.09396 64.0298 4.05781C62.9258 4.00605 62.5399 4 60.001 4ZM60.001 2C62.7176 2 63.0568 2.01 64.1235 2.06C65.1876 2.10917 65.9135 2.2775 66.551 2.525C67.2101 2.77917 67.7668 3.1225 68.3226 3.67833C68.8776 4.23417 69.221 4.7925 69.476 5.45C69.7226 6.08667 69.891 6.81333 69.941 7.8775C69.9885 8.94417 70.001 9.28333 70.001 12C70.001 14.7167 69.991 15.0558 69.941 16.1225C69.8918 17.1867 69.7226 17.9125 69.476 18.55C69.2218 19.2092 68.8776 19.7658 68.3226 20.3217C67.7668 20.8767 67.2076 21.22 66.551 21.475C65.9135 21.7217 65.1876 21.89 64.1235 21.94C63.0568 21.9875 62.7176 22 60.001 22C57.2843 22 56.9451 21.99 55.8785 21.94C54.8143 21.8908 54.0893 21.7217 53.451 21.475C52.7926 21.2208 52.2351 20.8767 51.6793 20.3217C51.1235 19.7658 50.781 19.2067 50.526 18.55C50.2785 17.9125 50.111 17.1867 50.061 16.1225C50.0135 15.0558 50.001 14.7167 50.001 12C50.001 9.28333 50.011 8.94417 50.061 7.8775C50.1101 6.8125 50.2785 6.0875 50.526 5.45C50.7801 4.79167 51.1235 4.23417 51.6793 3.67833C52.2351 3.1225 52.7935 2.78 53.451 2.525C54.0885 2.2775 54.8135 2.11 55.8785 2.06C56.9451 2.0125 57.2843 2 60.001 2Z" fill="white"/>
<path d="M78.9405 4.99993C78.9401 5.81424 78.4461 6.54702 77.6913 6.85273C76.9366 7.15845 76.0719 6.97605 75.5049 6.39155C74.9379 5.80704 74.7819 4.93715 75.1105 4.19207C75.4391 3.44699 76.1865 2.9755 77.0005 2.99993C78.0815 3.03238 78.941 3.91837 78.9405 4.99993ZM79.0005 8.47993H75.0005V20.9999H79.0005V8.47993ZM85.3205 8.47993H81.3405V20.9999H85.2805V14.4299C85.2805 10.7699 90.0505 10.4299 90.0505 14.4299V20.9999H94.0005V13.0699C94.0005 6.89993 86.9405 7.12993 85.2805 10.1599L85.3205 8.47993Z" fill="white"/>
</svg>
