<svg width="368" height="32" viewBox="0 0 368 32" fill="none" xmlns="http://www.w3.org/2000/svg">
<path d="M1.77778 0H30.2222C31.2041 0 32 0.795947 32 1.77778V14.2222H0V1.77778C0 0.795947 0.795947 0 1.77778 0ZM0 17.7778H32V30.2222C32 31.2041 31.2041 32 30.2222 32H1.77778C0.795947 32 0 31.2041 0 30.2222V17.7778ZM7.11111 23.1111V26.6667H12.4444V23.1111H7.11111ZM7.11111 5.33333V8.88889H12.4444V5.33333H7.11111Z" fill="white"/>
<path d="M49.6 0H78.4C79.2837 0 80 0.795947 80 1.77778V30.2222C80 31.2041 79.2837 32 78.4 32H49.6C48.7164 32 48 31.2041 48 30.2222V1.77778C48 0.795947 48.7164 0 49.6 0ZM76.8 12.4444H51.2V28.4444H76.8V12.4444ZM52.8 5.33333V8.88889H56V5.33333H52.8ZM59.2 5.33333V8.88889H62.4V5.33333H59.2Z" fill="white"/>
<path d="M110.4 7.11111V1.77778C110.4 0.795947 111.116 0 112 0H126.4C127.284 0 128 0.795947 128 1.77778V30.2222C128 31.2041 127.284 32 126.4 32H97.6C96.7164 32 96 31.2041 96 30.2222V8.88889C96 7.90706 96.7164 7.11111 97.6 7.11111H110.4ZM100.8 23.1111V26.6667H108.8V23.1111H100.8ZM115.2 23.1111V26.6667H123.2V23.1111H115.2ZM115.2 17.7778V21.3333H123.2V17.7778H115.2ZM115.2 12.4444V16H123.2V12.4444H115.2ZM100.8 17.7778V21.3333H108.8V17.7778H100.8Z" fill="white"/>
<path d="M158.4 0.856208C157.459 0.311664 156.366 0 155.2 0C151.665 0 148.8 2.86538 148.8 6.4V9.23875C147.438 9.7863 146.322 10.6366 145.506 11.7589C144.468 13.1864 144 14.9355 144 16.8C144 19.2982 145.272 21.497 147.2 22.7872V24.8C147.2 28.7765 150.424 32 154.4 32C155.88 32 157.256 31.5534 158.4 30.7875V24.8C158.4 22.6672 157.872 21.3035 157.024 20.3853C156.156 19.4445 154.746 18.7464 152.537 18.3782L153.063 15.2218C155.146 15.5688 156.969 16.2197 158.4 17.3234V0.856208ZM161.6 0.856208V17.3234C163.031 16.2197 164.854 15.5688 166.937 15.2218L167.463 18.3782C165.254 18.7464 163.844 19.4445 162.976 20.3853C162.128 21.3035 161.6 22.6672 161.6 24.8V30.7875C162.744 31.5534 164.12 32 165.6 32C169.576 32 172.8 28.7765 172.8 24.8V22.7872C174.728 21.497 176 19.2982 176 16.8C176 14.9355 175.532 13.1864 174.494 11.7589C173.678 10.6366 172.562 9.7863 171.2 9.23875V6.4C171.2 2.86538 168.335 0 164.8 0C163.634 0 162.541 0.311664 161.6 0.856208Z" fill="white"/>
<path d="M208 1.33337L212 8.00004H209.333V17.8414L213.333 15.8427L213.332 14.6667H212V9.33337H217.333V14.6667H215.999L216 17.4907L209.333 20.824L209.334 22.8947C210.887 23.4442 212 24.9255 212 26.6667C212 28.8759 210.209 30.6667 208 30.6667C205.791 30.6667 204 28.8759 204 26.6667C204 25.084 204.919 23.7162 206.253 23.0675L200 18.6667L199.998 15.6424C199.202 15.1811 198.667 14.3198 198.667 13.3334C198.667 11.8606 199.86 10.6667 201.333 10.6667C202.806 10.6667 204 11.8606 204 13.3334C204 14.3204 203.464 15.1822 202.667 15.6432L202.667 17.3334L206.667 20.1147V8.00004H204L208 1.33337Z" fill="white"/>
<path d="M259.996 2.66663L268 10.6666L268.002 16.3474C267.229 15.7074 266.325 15.2237 265.334 14.9432L265.333 12H258.667V5.33329H246.667V26.6666L253.412 26.6678C253.568 27.6486 253.95 28.5562 254.503 29.3341L245.325 29.3333C244.645 29.3333 244.085 28.8228 244.009 28.1652L244 28.0109V3.98903C244 3.3248 244.516 2.75391 245.18 2.67573L245.336 2.66663H259.996ZM263.333 17.3333C265.911 17.3333 268 19.4226 268 22L267.998 22.1377C269.537 22.5713 270.667 23.987 270.667 25.6666C270.667 27.6166 269.144 29.2112 267.223 29.3266L267 29.3333H259.667L259.443 29.3266C257.522 29.2112 256 27.6166 256 25.6666C256 23.9866 257.13 22.5705 258.671 22.1366L258.667 22C258.667 19.4226 260.756 17.3333 263.333 17.3333ZM263.333 20C262.359 20 261.547 20.6972 261.369 21.62L261.343 21.8073L261.333 22V24.16L259.408 24.7008C258.874 24.8437 258.558 25.392 258.701 25.9254C258.807 26.3206 259.135 26.5968 259.515 26.6553L259.659 26.6669H267.007C267.446 26.664 267.847 26.37 267.966 25.9254C268.109 25.392 267.792 24.8437 267.259 24.7008L265.91 24.3242L265.333 24.16V22L265.324 21.8073C265.227 20.7932 264.373 20 263.333 20Z" fill="white"/>
<path d="M312.007 26.6667H296.007V29.3333H293.34V26.6667H292.007C291.27 26.6667 290.673 26.0697 290.673 25.3333V5.33333C290.673 4.59696 291.27 4 292.007 4H316.007C316.743 4 317.34 4.59696 317.34 5.33333V25.3333C317.34 26.0697 316.743 26.6667 316.007 26.6667H314.673V29.3333H312.007V26.6667ZM293.34 24H314.673V6.66667H293.34V24ZM305.34 18.4987V22.6667H302.673V18.4987C300.373 17.9065 298.673 15.8184 298.673 13.3333C298.673 10.3878 301.061 8 304.007 8C306.952 8 309.34 10.3878 309.34 13.3333C309.34 15.8184 307.64 17.9065 305.34 18.4987ZM304.007 16C305.479 16 306.673 14.8061 306.673 13.3333C306.673 11.8606 305.479 10.6667 304.007 10.6667C302.534 10.6667 301.34 11.8606 301.34 13.3333C301.34 14.8061 302.534 16 304.007 16Z" fill="white"/>
<path d="M349.885 4L352.552 6.66667H364C364.736 6.66667 365.333 7.26363 365.333 8V26.6667C365.333 27.4031 364.736 28 364 28H340C339.263 28 338.667 27.4031 338.667 26.6667V5.33333C338.667 4.59696 339.263 4 340 4H349.885ZM360 24H354.667V20H357.333V17.3333H354.667V14.6667H357.333V12H354.667V9.33333H351.448L348.781 6.66667H341.333V25.3333H362.667V9.33333H357.333V12H360V14.6667H357.333V17.3333H360V24Z" fill="white"/>
</svg>
